# xmcd
#
# Track frame offsets:
#	150
#	14929
#	19070
#	32239
#	49996
#	80525
#	96912
#	106563
#	122586
#	132330
#	143408
#	157231
#	167538
#	183626
#	200370
#	214418
#	231893
#
# Disc length: 3283 seconds
#
# Revision: 0
# Processed by: cddbd v1.4PL0 Copyright (c) Steve Scherf et al.
# Submitted via: EasyCDDAExtractor 4.6.0.1
#
DISCID=ef0cd111
DTITLE=Brett Marvin and Thunderbolts - Vintage Thunderbolts
DYEAR=1900
DGENRE=Country
TTITLE0=Roll and Tumble
TTITLE1=Short Woogie
TTITLE2=Nervous
TTITLE3=Walking Blues
TTITLE4=Don'T Start Me Talking
TTITLE5=Cincinnati Underworld Woman
TTITLE6=Milk Cow Blues
TTITLE7=Come On In My Kitchen
TTITLE8=Little Red Caboose
TTITLE9=Take Your Money And Go Down The Road
TTITLE10=I'M Ready
TTITLE11=Hot Weather Music
TTITLE12=Too Many Hot Days
TTITLE13=Walking Blues
TTITLE14=Make It To The Woods
TTITLE15=Spoonful
TTITLE16=Phonograph Blues
EXTD=
EXTT0=
EXTT1=
EXTT2=
EXTT3=
EXTT4=
EXTT5=
EXTT6=
EXTT7=
EXTT8=
EXTT9=
EXTT10=
EXTT11=
EXTT12=
EXTT13=
EXTT14=
EXTT15=
EXTT16=
PLAYORDER=
